<svg width="18.000000" height="18.000000" viewBox="0 0 18 18" fill="none" xmlns="http://www.w3.org/2000/svg" xmlns:xlink="http://www.w3.org/1999/xlink">
	<desc>
			Created with Pixso.
	</desc>
	<g opacity="0.000000">
		<rect x="0.500000" y="0.500000" width="17.000000" height="17.000000" fill="#FFFFFF"/>
		<rect x="0.500000" y="0.500000" width="17.000000" height="17.000000" stroke="#707070"/>
	</g>
	<path d="M6.72852 13.6045C6.45312 13.8604 6.07715 14.0093 5.69238 14.0137L1.83594 14.0698C1.39062 14.0322 1.04004 13.707 1 13.293L1.06055 9.71143C1.06543 9.34863 1.22559 9.00439 1.50098 8.74854L8.69629 2.06494L13.9238 6.9209L6.72852 13.6045Z" fill-rule="evenodd" fill="#FCCA1E"/>
	<path d="M14.5557 6.31152L9.32324 1.45557L10.3047 0.543945C11.0879 -0.181152 12.3555 -0.181152 13.1387 0.543945L15.5371 2.77197C16.3184 3.49951 16.3184 4.67725 15.5371 5.40479L14.5557 6.31152Z" fill-rule="evenodd" fill="#FCCA1E"/>
	<path d="M15.5 18L2.5 18C1.66992 18 1 17.377 1 16.605C1 15.833 1.66992 15.2095 2.5 15.2095L15.5 15.2095C16.3301 15.2095 17 15.833 17 16.605C17 17.377 16.3301 18 15.5 18Z" fill-rule="evenodd" fill="#FFEFB7"/>
	<defs/>
</svg>
