<svg xmlns="http://www.w3.org/2000/svg" xmlns:xlink="http://www.w3.org/1999/xlink" width="24" height="24" viewBox="0 0 24 24">
  <defs>
    <linearGradient id="linear-gradient" x1="0.5" x2="0.5" y2="1" gradientUnits="objectBoundingBox">
      <stop offset="0" stop-color="#64cc84"/>
      <stop offset="1" stop-color="#27a74e"/>
    </linearGradient>
  </defs>
  <g id="协议费用" transform="translate(-262 -965)">
    <g id="路径_9133" data-name="路径 9133" transform="translate(262 965)" fill="#fff" opacity="0">
      <path d="M 23.5 23.5 L 0.5 23.5 L 0.5 0.5 L 23.5 0.5 L 23.5 23.5 Z" stroke="none"/>
      <path d="M 1 1 L 1 23 L 23 23 L 23 1 L 1 1 M 0 0 L 24 0 L 24 24 L 0 24 L 0 0 Z" stroke="none" fill="#707070"/>
    </g>
    <path id="路径_9135" data-name="路径 9135" d="M92.618,35.59a2.149,2.149,0,0,0-.1-.343,1.639,1.639,0,0,0-.16-.309,1.8,1.8,0,0,0-.781-.66,1.745,1.745,0,0,0-.329-.107,1.57,1.57,0,0,0-.351-.039H72.417a1.608,1.608,0,0,0-.355.039,2.106,2.106,0,0,0-.329.1,1.858,1.858,0,0,0-.562.394,1.669,1.669,0,0,0-.376.579,1.882,1.882,0,0,0-.1.343,1.718,1.718,0,0,0-.038.364V56.307a2.135,2.135,0,0,0,.034.369,2.29,2.29,0,0,0,.1.343,1.519,1.519,0,0,0,.16.309,1.668,1.668,0,0,0,.215.27,1.75,1.75,0,0,0,.562.39,1.745,1.745,0,0,0,.329.107,1.647,1.647,0,0,0,.359.039h1.6a1.308,1.308,0,0,0,1.1-.617l1.917-3.03,1.208,1.9a1.3,1.3,0,0,0,2.209,0l1.208-1.9,1.208,1.9a1.3,1.3,0,0,0,2.209,0l1.208-1.9,1.917,3.03a1.308,1.308,0,0,0,1.1.617h1.6a1.608,1.608,0,0,0,.355-.039,1.744,1.744,0,0,0,.329-.107,1.75,1.75,0,0,0,.562-.39,1.668,1.668,0,0,0,.215-.27,1.838,1.838,0,0,0,.262-.651,1.759,1.759,0,0,0,.034-.369V35.955a1.719,1.719,0,0,0-.038-.364ZM84.927,47.136a.857.857,0,0,1,0,1.714H82.5V51.4a.845.845,0,1,1-1.689,0V48.85H78.389a.857.857,0,0,1,0-1.714h2.424V45.55H78.389a.857.857,0,0,1,0-1.714h1.841L77.9,41.475a.868.868,0,0,1,0-1.213.838.838,0,0,1,1.2,0l2.564,2.6,2.564-2.6a.838.838,0,0,1,1.2,0,.868.868,0,0,1,0,1.213l-2.327,2.361h1.841a.857.857,0,0,1,0,1.714H82.511v1.586h2.416Z" transform="translate(192.344 930.867)" fill="url(#linear-gradient)"/>
  </g>
</svg>
