<svg xmlns="http://www.w3.org/2000/svg" xmlns:xlink="http://www.w3.org/1999/xlink" width="24" height="24" viewBox="0 0 24 24">
  <defs>
    <linearGradient id="linear-gradient" x1="0.5" x2="0.5" y2="1" gradientUnits="objectBoundingBox">
      <stop offset="0" stop-color="#6eb9ff"/>
      <stop offset="1" stop-color="#2193fc"/>
    </linearGradient>
  </defs>
  <g id="竞价信息" transform="translate(-262 -965)">
    <g id="路径_9133" data-name="路径 9133" transform="translate(262 965)" fill="#fff" opacity="0">
      <path d="M 23.5 23.5 L 0.5 23.5 L 0.5 0.5 L 23.5 0.5 L 23.5 23.5 Z" stroke="none"/>
      <path d="M 1 1 L 1 23 L 23 23 L 23 1 L 1 1 M 0 0 L 24 0 L 24 24 L 0 24 L 0 0 Z" stroke="none" fill="#707070"/>
    </g>
    <g id="组_2785" data-name="组 2785" transform="translate(29.04 713.19)">
      <path id="路径_9132" data-name="路径 9132" d="M256.945,271.256a1.953,1.953,0,0,0-.551-1.13c-1.013-1.063-2.026-2.1-3.061-3.165-1.7-1.741-3.392-3.5-5.088-5.245-.22-.226-.418-.452-.617-.656.463-.5.925-.972,1.388-1.447.132-.136.132-.158,0-.294-1.74-1.786-3.458-3.549-5.176-5.335-.088-.09-.11-.09-.2,0l-5.33,5.471c.044.045.066.09.11.136,1.74,1.786,3.48,3.595,5.22,5.381.066.068.11.09.2,0l.683-.7c.242-.271.507-.543.749-.814l.11.113c1.255,1.289,2.511,2.6,3.766,3.889,1.674,1.718,3.37,3.436,5.044,5.177a1.408,1.408,0,0,0,.815.452,1.646,1.646,0,0,0,.925-.113A1.666,1.666,0,0,0,256.945,271.256Zm-19.58-10.965a.961.961,0,0,1,.154.136l5.264,5.4c.11.113.11.181,0,.271l-.793.746a1.076,1.076,0,0,1-1.388-.068c-1.189-1.243-2.4-2.464-3.59-3.685a6.616,6.616,0,0,1-.529-.588,1.111,1.111,0,0,1,.044-1.266C236.792,260.9,237.079,260.608,237.365,260.291Zm12.642-1.741-.837-.859c-1.5-1.537-3-3.1-4.515-4.635-.11-.113-.11-.181,0-.271.242-.2.463-.43.683-.656a1.013,1.013,0,0,1,1.5.023c1.322,1.356,2.643,2.713,3.942,4.069a1.163,1.163,0,0,1,.33.814,1.135,1.135,0,0,1-.352.791A8.018,8.018,0,0,1,250.007,258.551Zm.9,17.259H234.105a1.176,1.176,0,0,1,0-2.351H250.91a1.176,1.176,0,0,1,0,2.351Z" transform="translate(0)" fill="url(#linear-gradient)"/>
    </g>
  </g>
</svg>
