<svg width="16.000000" height="16.000000" viewBox="0 0 16 16" fill="none" xmlns="http://www.w3.org/2000/svg" xmlns:xlink="http://www.w3.org/1999/xlink">
	<desc>
			Created with Pixso.
	</desc>
	<path d="M14.0962 2C14.6746 2 15.136 2.15234 15.4812 2.45801C15.8262 2.76367 16 3.22656 16 3.84766L16 12.0498C16 12.3145 15.9519 12.5664 15.8584 12.8037C15.7646 13.041 15.6343 13.248 15.4675 13.4238C15.3005 13.6006 15.1086 13.7412 14.8848 13.8447C14.6631 13.9482 14.4277 14 14.1809 14L1.79175 14C1.54492 14 1.31421 13.9502 1.09473 13.8516C0.877686 13.7529 0.687988 13.624 0.525635 13.459C0.365723 13.2969 0.237793 13.1074 0.141602 12.8906C0.0473633 12.6729 -0.000976562 12.4365 0 12.1973L0 3.81934C0 3.28809 0.155518 2.85059 0.468506 2.5127C0.781738 2.17188 1.22046 2.00195 1.78955 2.00195L14.0962 2ZM3.99487 4.7334C3.81421 4.7334 3.64526 4.76855 3.48291 4.83691C3.35962 4.95898 2.83838 5.39648 2.76758 5.57031C2.69678 5.74121 2.66016 5.92676 2.66016 6.125C2.66016 6.32227 2.69678 6.50293 2.76758 6.67188C2.89111 6.79883 3.323 7.34473 3.48291 7.41992C3.64404 7.49316 3.8186 7.53027 3.99487 7.53027C4.1936 7.53027 4.37646 7.49219 4.54102 7.41992C4.6604 7.29004 5.18164 6.83594 5.24951 6.67188C5.32031 6.50488 5.35693 6.32227 5.35693 6.125C5.35693 5.7207 5.229 5.38867 4.9729 5.12793C4.71924 4.86523 4.39258 4.7334 3.99487 4.7334ZM6.22534 9.84766C6.22534 9.65918 6.18872 9.48047 6.11792 9.30859C5.99902 9.18652 5.57397 8.64355 5.40723 8.56836C5.24048 8.49609 5.06909 8.45801 4.88843 8.45801L3.11279 8.45801C2.74243 8.45801 2.43164 8.59473 2.17578 8.86523C1.91968 9.13477 1.79175 9.46387 1.79175 9.84766L1.79175 11.2363L6.22534 11.2363L6.22534 9.84766ZM12.8164 11.3086C12.9055 11.21 13.3694 10.9443 13.3694 10.8057C13.2644 10.7031 12.9629 10.2891 12.7732 10.2891L8.54053 10.2891C8.44702 10.3926 7.97144 10.667 7.97144 10.8057C8.06519 10.9053 8.34644 11.3086 8.52441 11.3086L12.8164 11.3086ZM12.8325 9.40332C12.917 9.30469 13.3718 9.03906 13.3718 8.90039C13.2917 8.80176 13.0359 8.38281 12.8462 8.38281L8.49927 8.38281C8.41479 8.48145 7.95996 8.75195 7.95996 8.90039C8.04004 8.99902 8.2959 9.40332 8.4856 9.40332L12.8325 9.40332ZM12.8462 7.52734C12.9512 7.42871 13.3718 7.16309 13.3718 7.02441C13.2668 6.94043 12.9902 6.56836 12.8462 6.56836L9.96191 6.56836C9.86133 6.65332 9.45239 6.88867 9.45239 7.02441C9.55054 7.12305 9.82031 7.52734 9.96191 7.52734L12.8462 7.52734Z" fill-rule="evenodd" fill="url(#paint_linear_1_16574_0)"/>
	<defs>
		<linearGradient id="paint_linear_1_16574_0" x1="7.999991" y1="2.000000" x2="7.999991" y2="14.000000" gradientUnits="userSpaceOnUse">
			<stop stop-color="#64CC84"/>
			<stop offset="1.000000" stop-color="#27A74E"/>
		</linearGradient>
	</defs>
</svg>
