<svg width="16.000000" height="16.000000" viewBox="0 0 16 16" fill="none" xmlns="http://www.w3.org/2000/svg" xmlns:xlink="http://www.w3.org/1999/xlink">
	<desc>
			Created with Pixso.
	</desc>
	<path d="M1.58447 1L14.415 1C15.2864 1 16 1.80957 16 2.79883L0 3.24316C0 2.25391 0.713135 1 1.58447 1ZM9.8877 8.05273L14.1748 8.05273L14.1748 9.04102L9.8877 9.04102L9.8877 8.05273ZM4.12329 10.252C4.36865 10.3799 4.91675 10.4531 5.21826 10.4531C5.51978 10.4531 5.80273 10.3799 6.04834 10.252C6.8103 10.252 7.69824 10.96 7.69824 11.8242C7.69824 12.1992 7.42822 12.6787 7.09814 12.6787L3.33838 12.6787C3.0083 12.6787 2.73804 12.3721 2.73804 11.998C2.73804 11.1328 3.36133 10.252 4.12329 10.252ZM5.21826 6.24805C5.9856 6.24805 6.60791 6.9541 6.60791 7.8252C6.60791 8.69727 5.9856 9.40332 5.21826 9.40332C4.45068 9.40332 3.82861 8.69727 3.82861 7.8252C3.82861 6.9541 4.45068 6.24805 5.21826 6.24805ZM9.8877 10.0986L14.1748 10.0986L14.1748 11.0859L9.8877 11.0859L9.8877 10.0986ZM9.8877 6.00781L14.1748 6.00781L14.1748 6.99512L9.8877 6.99512L9.8877 6.00781ZM16 4.30957L0 4.30957L0 13.2021C0 14.1914 0.713135 15 1.58447 15L14.415 15C15.2864 15 16 14.1914 16 13.2021L16 4.30957Z" fill-rule="evenodd" fill="url(#paint_linear_1_16619_0)"/>
	<defs>
		<linearGradient id="paint_linear_1_16619_0" x1="8.000038" y1="1.000000" x2="8.000038" y2="15.000000" gradientUnits="userSpaceOnUse">
			<stop stop-color="#A187FF"/>
			<stop offset="1.000000" stop-color="#9B57FF"/>
		</linearGradient>
	</defs>
</svg>
