<?xml version="1.0" standalone="no"?><!DOCTYPE svg PUBLIC "-//W3C//DTD SVG 1.1//EN" "http://www.w3.org/Graphics/SVG/1.1/DTD/svg11.dtd"><svg t="1669952370097" class="icon" viewBox="0 0 1024 1024" version="1.1" xmlns="http://www.w3.org/2000/svg" p-id="17613" xmlns:xlink="http://www.w3.org/1999/xlink" width="16" height="16"><path d="M149.474245 731.297528a421.888 421.888 0 1 0 717.785635-443.555769 421.888 421.888 0 1 0-717.785635 443.555769Z" fill="#7B79FF" p-id="17614"></path><path d="M739.5328 409.4976c-1.3824-0.768-136.7552-79.6672-202.9056-161.3312a29.65504 29.65504 0 0 0-23.808-11.008c-9.216 0.256-17.8176 4.7616-23.2448 12.1856-67.7376 92.928-197.3248 158.6688-198.656 159.2832a29.70112 29.70112 0 0 0 13.312 56.2688c4.4544 0 9.0112-1.024 13.2608-3.1232 5.2736-2.6624 119.0912-60.2112 197.2224-148.992 75.9808 78.7456 189.7984 145.0496 195.1232 148.1216 14.1824 8.192 32.3584 3.3792 40.5504-10.8032 8.1408-14.2336 3.328-32.4096-10.8544-40.6016z" fill="#FFFFFF" p-id="17615"></path><path d="M704.8192 665.9584H556.032v-105.2672h119.3984c16.384 0 29.696-13.312 29.696-29.696 0-16.384-13.312-29.696-29.696-29.696H556.032V412.4672c0-16.384-13.312-29.696-29.696-29.696-16.384 0-29.696 13.312-29.696 29.696v253.4912H422.5024v-178.688c0-16.384-13.312-29.696-29.696-29.696s-29.696 13.312-29.696 29.696v178.688h-42.8544c-16.384 0-29.696 13.312-29.696 29.696 0 16.384 13.312 29.696 29.696 29.696h384.512c16.384 0 29.696-13.312 29.696-29.696 0-16.384-13.2608-29.696-29.6448-29.696z" fill="#FFFFFF" p-id="17616"></path></svg>