<svg width="18.000000" height="18.000000" viewBox="0 0 18 18" fill="none" xmlns="http://www.w3.org/2000/svg" xmlns:xlink="http://www.w3.org/1999/xlink">
	<desc>
			Created with Pixso.
	</desc>
	<g opacity="0.000000">
		<rect x="0.500000" y="0.500000" width="17.000000" height="17.000000" fill="#FFFFFF"/>
		<rect x="0.500000" y="0.500000" width="17.000000" height="17.000000" stroke="#707070"/>
	</g>
	<path d="M2.48535 15.3921C1.3291 15.3921 0.391602 14.4521 0.391602 13.293L0.391602 6.29688C0.391602 5.1377 1.3291 4.19775 2.48535 4.19775C3.6416 4.19775 4.5791 5.1377 4.5791 6.29688L4.5791 13.293C4.5791 14.4521 3.6416 15.3921 2.48535 15.3921ZM9 15.3921C7.84375 15.3921 6.90625 14.4521 6.90625 13.293L6.90625 2.09912C6.90625 0.939941 7.84375 0 9 0C10.1562 0 11.0938 0.939941 11.0938 2.09912L11.0938 13.293C11.0938 14.4521 10.1562 15.3921 9 15.3921ZM15.5146 15.3921C14.3584 15.3921 13.4209 14.4521 13.4209 13.293L13.4209 10.4946C13.4209 9.33545 14.3584 8.39551 15.5146 8.39551C16.6709 8.39551 17.6084 9.33545 17.6084 10.4946L17.6084 13.293C17.6084 14.4521 16.6709 15.3921 15.5146 15.3921ZM17.6084 18L0.391602 18C0.391602 17.7832 0.175781 17.2148 0.391602 17.2148L17.6084 17.2148C17.8242 17.2148 17.6084 17.7832 17.6084 18Z" fill-rule="evenodd" fill="#FF7B15"/>
	<defs/>
</svg>
