<svg width="20.000000" height="18.000000" viewBox="0 0 20 18" fill="none" xmlns="http://www.w3.org/2000/svg" xmlns:xlink="http://www.w3.org/1999/xlink">
	<desc>
			Created with Pixso.
	</desc>
	<path d="M20 14.1689C20 15.2744 19.6006 15.4951 18.0674 15.4951C17.667 11.2222 15.7344 9.15967 13.7354 8.12842C15.0684 6.13916 15.1348 3.26611 13.8691 1.12988C15.4014 0.61377 17.001 1.79248 17.4004 3.63428C17.7344 5.25537 17.0674 7.02344 15.7344 7.68604C18.2676 8.42285 20 11.0752 20 14.1689ZM11.8027 8.49658C14.2686 9.08594 17.1338 11.0015 17.1338 16.5264C17.1338 18 15.4678 18 10.0703 18C4.60547 18 3.00586 18 3.00586 16.5264C3.00586 11.0752 5.87109 9.08594 8.33691 8.49658C6.4043 7.31787 5.73828 4.59229 6.6709 2.38184C7.60449 0.171875 9.93652 -0.638184 11.7363 0.540527C13.5352 1.71924 14.2686 4.44482 13.2686 6.58105C12.9355 7.46533 12.4023 8.05469 11.8027 8.49658ZM6.27148 8.12842C4.27246 9.15967 2.33984 11.2959 1.93945 15.4951C0.407227 15.4951 0.00683594 15.2744 0.00683594 14.1689C-0.125977 11.0752 1.67285 8.34912 4.20508 7.68604C2.73926 6.87598 2.07324 4.88672 2.73926 3.11865C3.33887 1.57178 4.73828 0.76123 6.1377 1.20312C4.87207 3.26611 4.93848 6.06543 6.27148 8.12842Z" fill-rule="evenodd" fill="#FFFFFF"/>
	<defs/>
</svg>
