<svg xmlns="http://www.w3.org/2000/svg" xmlns:xlink="http://www.w3.org/1999/xlink" width="16" height="16.001" viewBox="0 0 16 16.001">
  <defs>
    <linearGradient id="linear-gradient" x1="0.5" x2="0.5" y2="1" gradientUnits="objectBoundingBox">
      <stop offset="0" stop-color="#64cc84"/>
      <stop offset="1" stop-color="#27a74e"/>
    </linearGradient>
  </defs>
  <g id="运费汇总" transform="translate(0 0.001)">
    <g id="矩形_4391" data-name="矩形 4391" fill="#fff" stroke="#707070" stroke-width="1" opacity="0">
      <rect width="16" height="16" stroke="none"/>
      <rect x="0.5" y="0.5" width="15" height="15" fill="none"/>
    </g>
    <g id="组_446" data-name="组 446" transform="translate(-238.933 -221.867)">
      <path id="路径_8092" data-name="路径 8092" d="M247.619,234.394a3.423,3.423,0,0,1,3.372-3.471v3.471l2.553,2.268a3.324,3.324,0,0,1-2.552,1.2A3.423,3.423,0,0,1,247.619,234.394Zm-8.228,3.472a.464.464,0,0,1-.457-.471V223.278a.464.464,0,0,1,.457-.471h1.829a1.9,1.9,0,0,0,.536,1.331,1.79,1.79,0,0,0,1.292.552H246.7a1.856,1.856,0,0,0,1.829-1.882h1.829a.464.464,0,0,1,.457.471v7.065q-.114-.007-.229-.007a3.949,3.949,0,0,0-3.886,4,4.016,4.016,0,0,0,2.054,3.529Zm3.291-7.927a.48.48,0,0,0,0,.665l1.94,2,2.909-2.995a.481.481,0,0,0,0-.665.448.448,0,0,0-.646,0l-2.262,2.329-1.294-1.331a.448.448,0,0,0-.646,0Zm-.549-2.9a.464.464,0,0,0,.457.471h4.571a.471.471,0,0,0,0-.941H242.59A.464.464,0,0,0,242.133,227.043Zm9.428,7.149h3.372a3.516,3.516,0,0,1-.82,2.268Zm0-.489v-3.472a3.423,3.423,0,0,1,3.372,3.472Zm-8.514-9.954a.942.942,0,0,1,0-1.882H246.7a.942.942,0,0,1,0,1.882Z" transform="translate(0 0)" fill="url(#linear-gradient)"/>
    </g>
  </g>
</svg>
