<svg id="发票详情" xmlns="http://www.w3.org/2000/svg" xmlns:xlink="http://www.w3.org/1999/xlink" width="16.003" height="16.001" viewBox="0 0 16.003 16.001">
  <defs>
    <linearGradient id="linear-gradient" x1="0.5" x2="0.5" y2="1" gradientUnits="objectBoundingBox">
      <stop offset="0" stop-color="#ff9778"/>
      <stop offset="1" stop-color="#ff643d"/>
    </linearGradient>
  </defs>
  <g id="矩形_4391" data-name="矩形 4391" fill="#fff" stroke="#707070" stroke-width="1" opacity="0">
    <rect width="15.77" height="16" stroke="none"/>
    <rect x="0.5" y="0.5" width="14.77" height="15" fill="none"/>
  </g>
  <g id="组_429" data-name="组 429" transform="translate(-32 -32)">
    <path id="联合_118" data-name="联合 118" d="M-4507.953-14870.107l-1.988-1.514a.7.7,0,0,0-.422-.142.686.686,0,0,0-.362.1l-1.936,1.454a.663.663,0,0,1-.34.093.68.68,0,0,1-.344-.093l-1.928-1.454a.705.705,0,0,0-.362-.1.746.746,0,0,0-.43.142l-1.965,1.5a.547.547,0,0,1-.325.108.594.594,0,0,1-.239-.052.556.556,0,0,1-.3-.486l0-.814v-9.9h-1.039a1.059,1.059,0,0,1-1.065-1.054v-2.626a1.062,1.062,0,0,1,1.065-1.054h13.868a1.065,1.065,0,0,1,1.068,1.054v2.626a1.063,1.063,0,0,1-1.068,1.054h-1.035v9.9l-.011.834a.531.531,0,0,1-.292.474.578.578,0,0,1-.235.057A.5.5,0,0,1-4507.953-14870.107Zm-8.2-5.652a.525.525,0,0,0,.526.522h5.256a.533.533,0,0,0,.527-.522.534.534,0,0,0-.527-.527h-5.256A.526.526,0,0,0-4516.153-14875.76Zm0-4.211a.53.53,0,0,0,.526.531h5.256a.532.532,0,0,0,.527-.531.524.524,0,0,0-.527-.519h-5.256A.522.522,0,0,0-4516.153-14879.971Zm-3.269-3.926v1.05a.53.53,0,0,0,.527.526v-1.162a.413.413,0,0,1,.411-.414h10.973a.415.415,0,0,1,.411.414v1.162a.53.53,0,0,0,.523-.526v-1.05a.53.53,0,0,0-.534-.527h-11.775A.53.53,0,0,0-4519.422-14883.9Z" transform="translate(4553.001 14918)" fill="url(#linear-gradient)"/>
  </g>
</svg>
