<svg width="18.000000" height="20.000000" viewBox="0 0 18 20" fill="none" xmlns="http://www.w3.org/2000/svg" xmlns:xlink="http://www.w3.org/1999/xlink">
	<desc>
			Created with Pixso.
	</desc>
	<path d="M13.7646 3.46191C14.291 3.46191 14.7168 3.07422 14.7168 2.59668L14.7168 0.865723C14.7168 0.387695 14.291 0 13.7646 0C13.2383 0 12.8115 0.387695 12.8115 0.865723L12.8115 2.59668C12.8115 3.07422 13.2383 3.46191 13.7646 3.46191ZM4.23535 3.46191C4.76172 3.46191 5.18848 3.07422 5.18848 2.59668L5.18848 0.865723C5.18848 0.387695 4.76172 0 4.23535 0C3.70898 0 3.28223 0.387695 3.28223 0.865723L3.28223 2.59668C3.28223 3.07422 3.70898 3.46191 4.23535 3.46191Z" fill-rule="evenodd" fill="#FFFFFF"/>
	<path d="M17.0693 1.73193L15.5176 1.73193L15.5176 2.67676C15.5176 3.72021 14.6836 4.56689 13.6553 4.56689C12.627 4.56689 11.793 3.72021 11.793 2.67676L11.793 1.73193L10.7998 1.73193C10.7998 1.70996 10.0283 1.73193 9 1.73193C7.97168 1.73193 7.2002 1.7417 7.2002 1.73193L6.20703 1.73193L6.20703 2.67676C6.20703 3.72021 5.37402 4.56689 4.34473 4.56689C3.31641 4.56689 2.48242 3.72021 2.48242 2.67676L2.48242 1.73193L0.930664 1.73193C0.416016 1.73193 0 2.15527 0 2.67676L0 19.0552C0 19.5767 0.416016 20 0.930664 20L17.0693 20C17.584 20 18 19.5767 18 19.0552L18 2.67676C18 2.15527 17.584 1.73193 17.0693 1.73193ZM13.0342 16.8506L4.96582 16.8506C4.59473 16.8506 4.29297 16.5342 4.29297 16.1445C4.29297 15.7544 4.59473 15.4385 4.96582 15.4385L13.0342 15.4385C13.4053 15.4385 13.707 15.7544 13.707 16.1445C13.707 16.5342 13.4053 16.8506 13.0342 16.8506ZM13.0342 13.2017L4.96582 13.2017C4.59473 13.2017 4.29297 12.8853 4.29297 12.4956C4.29297 12.1055 4.59473 11.7896 4.96582 11.7896L13.0342 11.7896C13.4053 11.7896 13.707 12.1055 13.707 12.4956C13.707 12.8853 13.4053 13.2017 13.0342 13.2017ZM13.0342 9.55273L4.96582 9.55273C4.59473 9.55273 4.29297 9.23633 4.29297 8.84668C4.29297 8.45654 4.59473 8.14062 4.96582 8.14062L13.0342 8.14062C13.4053 8.14062 13.707 8.45654 13.707 8.84668C13.707 9.23633 13.4053 9.55273 13.0342 9.55273Z" fill-rule="evenodd" fill="#FFFFFF"/>
	<defs/>
</svg>
