<svg width="20.000000" height="18.000000" viewBox="0 0 20 18" fill="none" xmlns="http://www.w3.org/2000/svg" xmlns:xlink="http://www.w3.org/1999/xlink">
	<desc>
			Created with Pixso.
	</desc>
	<path d="M0.333008 0.400391C0.571289 0.149902 1.04492 0 1.80566 0L4.27539 0L4.27539 17.9834L1.71094 17.9834C1.04688 18.0332 0.571289 17.8833 0.285156 17.6328C0.0478516 17.3828 0 17.0327 0 16.3843L0 11.8901C0 11.6401 0.0478516 11.4399 0.142578 11.29C0.238281 11.1396 0.428711 11.0898 0.666016 11.0396C1.09473 10.8394 1.85352 10.3892 2.04395 9.99121C2.18652 9.74121 2.23438 9.44092 2.23438 9.09277C2.23438 8.54248 2.09082 8.09473 1.75781 7.79443C1.4248 7.49414 1.13965 7.29395 0.761719 7.24365C0.475586 7.19385 0.285156 7.09375 0.19043 6.99365C0.0478516 6.84375 0 6.64355 0 6.39307L0 1.79932C0.00195312 1.15088 0.0976562 0.700684 0.333008 0.400391ZM11.5439 9.24316L11.5439 10.2915L10.0234 10.2915C9.73828 10.2915 9.5 10.5415 9.5 10.8418C9.5 11.1421 9.73828 11.3926 10.0234 11.3926L11.5439 11.3926L11.5439 12.9414C11.5439 13.2417 11.7822 13.4917 12.0674 13.4917C12.3525 13.4917 12.543 13.2417 12.5908 12.9414L12.5908 11.3926L14.0635 11.3926C14.3486 11.3926 14.5391 11.1924 14.5869 10.8418C14.5869 10.5415 14.3486 10.2915 14.0635 10.2915L12.5908 10.2915L12.5908 9.24316L14.0635 9.24316C14.3486 9.24316 14.5391 9.04297 14.5869 8.69238C14.5869 8.39258 14.3486 8.14209 14.0635 8.14209L12.876 8.14209L14.5391 6.39307C14.7295 6.19287 14.7295 5.89258 14.5869 5.69287C14.3965 5.49268 14.0117 5.44482 13.8232 5.64502L12.1602 7.39404L10.3066 5.64502C10.1162 5.44482 9.7832 5.44482 9.5957 5.64502C9.40527 5.84521 9.40527 6.14551 9.54785 6.3457L11.2588 8.14453L9.92871 8.14453C9.64258 8.14453 9.40527 8.39453 9.40527 8.69482C9.40527 8.99512 9.64258 9.24561 9.92871 9.24561L11.5439 9.24316ZM18.7148 6.09521C18.5723 6.29541 18.4775 6.49561 18.4775 6.74561C18.4775 6.9458 18.5244 7.19629 18.667 7.39648C18.8105 7.59668 19 7.74658 19.2861 7.84668C19.5234 7.94678 19.7139 8.09668 19.8096 8.29688C19.9521 8.49707 20 8.69727 20 8.89746C20 9.09766 19.9521 9.34766 19.8564 9.49805C19.2383 9.79834 18.5273 10.5991 18.5273 10.9966C18.4795 11.397 18.7168 11.7451 19.1904 11.9951C19.4287 12.0952 19.5713 12.2456 19.7139 12.4458C19.8564 12.6455 19.9043 12.8457 19.9521 13.0962C19.9521 13.2964 19.9043 13.5464 19.8096 13.6968C19.5234 13.7466 18.8105 14.2969 18.667 14.4971C18.5244 14.6475 18.4297 14.8975 18.4297 15.0977C18.4297 15.2979 18.4775 15.5479 18.6201 15.748C18.7627 15.9482 18.9531 16.1484 19.2383 16.2988C19.334 16.499 19.7617 17.1494 19.7617 17.3496C19.667 17.4995 19.2383 18 19.0479 18L5.22754 18L5.22754 0.00244141L19.2383 0.00244141C19.334 0.152344 19.8564 0.603027 19.9043 0.75293C19.9043 0.953125 19.8564 1.15332 19.7617 1.35352C19.5713 1.40332 18.9053 1.9541 18.7627 2.104C18.6201 2.25439 18.5723 2.4541 18.5244 2.6543C18.5244 2.85449 18.5723 3.05469 18.667 3.25488C18.8105 3.45508 19 3.60547 19.2861 3.70557C19.4766 3.80518 19.667 3.95557 19.8096 4.15576C19.9521 4.35596 19.8564 4.60596 19.9043 4.80615C19.9043 5.00635 20 5.15625 19.9043 5.35645C19.8096 5.55664 19.6191 5.65674 19.3809 5.75684C19.0957 5.74512 18.8574 5.89502 18.7148 6.09521Z" fill-rule="evenodd" fill="#FFFFFF"/>
	<defs/>
</svg>
