<svg width="20.000000" height="17.791016" viewBox="0 0 20 17.791" fill="none" xmlns="http://www.w3.org/2000/svg" xmlns:xlink="http://www.w3.org/1999/xlink">
	<desc>
			Created with Pixso.
	</desc>
	<path d="M19.8682 5.18457L17.8057 0.783691C17.5869 0.30127 17.0869 0 16.5234 0L2.95801 0C2.36426 0 1.86426 0.361816 1.64551 0.874023L0.0820312 5.21436C-0.0742188 5.63672 -0.0117188 6.11865 0.300781 6.48047L8.95996 17.271C9.52246 17.9644 10.585 17.9644 11.1475 17.271L19.7432 6.54102C20.0244 6.14893 20.0869 5.63672 19.8682 5.18457ZM14.3984 8.83154L10.46 13.7446C10.2412 14.0161 9.80371 14.0161 9.58496 13.7446L5.61523 8.83154C5.42773 8.59033 5.45898 8.25879 5.70898 8.07812C5.95898 7.89697 6.30273 7.92725 6.49023 8.16846L9.55371 11.9966C9.77246 12.2676 10.21 12.2676 10.4287 11.9966L13.4922 8.16846C13.6797 7.92725 14.0234 7.89697 14.2734 8.07812C14.5234 8.25879 14.5859 8.59033 14.3984 8.83154Z" fill-rule="evenodd" fill="#FFFFFF"/>
	<defs/>
</svg>
