<?xml version="1.0" standalone="no"?><!DOCTYPE svg PUBLIC "-//W3C//DTD SVG 1.1//EN" "http://www.w3.org/Graphics/SVG/1.1/DTD/svg11.dtd"><svg t="1669951668953" class="icon" viewBox="0 0 1024 1024" version="1.1" xmlns="http://www.w3.org/2000/svg" p-id="12255" xmlns:xlink="http://www.w3.org/1999/xlink" width="16" height="16"><path d="M491.58 76.8c42.38-3.36 85.59 3.86 124.43 21.17 35.57 15.76 67.44 39.76 92.44 69.55 24.48 29.06 42.41 63.62 51.96 100.41 10.55 40.73 10.93 84.05 1.16 124.98-8.08 33.78-23.21 65.84-44.04 93.64-22.66 30.33-52.12 55.56-85.6 73.24-36.75 19.57-78.36 29.74-119.97 29.72-41.29 0.03-82.61-9.94-119.15-29.22-33.21-17.34-62.45-42.14-85.18-71.91-25.93-33.89-43.16-74.37-49.52-116.57-5.28-34.81-3.47-70.7 5.51-104.75 15.79-60.66 54.91-114.73 107.37-148.97 35.83-23.7 77.77-38 120.59-41.29m-3.05 47.01c-27.76 3.08-54.89 11.74-79.23 25.45-29.74 16.65-55.3 40.62-73.84 69.21-21.3 32.7-33.21 71.48-33.72 110.52-0.6 28.5 4.76 57.1 15.6 83.47 14.24 34.79 38.04 65.59 68.09 88.18 27.77 21.06 60.9 34.98 95.4 40.05 42.1 6.36 86.11-0.48 124.24-19.47 32.8-16.25 61.24-41.19 81.56-71.64 22.85-33.92 35.46-74.7 35.4-115.62 0.48-38.23-10.06-76.48-29.79-109.21-19.13-31.95-46.9-58.64-79.57-76.5-37.55-20.68-81.57-29.27-124.14-24.44zM274.44 549.6c6.2-1.12 12.92 0.06 18.04 3.84 32.66 24.31 69.16 43.56 107.86 56.26 45.82 15.04 94.7 20.77 142.74 16.42 7.58-0.69 15.41 2.63 20.11 8.64 6.01 7.3 6.69 18.24 1.92 26.36-21.47 39.02-31.17 84.34-27.75 128.73 2.96 40.32 16.9 79.71 39.74 113.06 3.7 5.84 9.16 10.98 10.17 18.16 2.14 11.06-4.88 22.93-15.69 26.21-5.05 1.58-10.39 1.18-15.6 1.22-151.99 0-303.99-0.01-455.98 0-5.74 0.01-11.82 0.29-17.1-2.36-6.41-2.99-11.23-9.11-12.67-16.03-1.01-4.67-0.18-9.44 0.12-14.12 6.85-83.99 33.68-166.54 79.18-237.58 30.49-47.74 69.33-90.25 114.8-124.11 2.96-2.3 6.4-4.04 10.11-4.7m-65.68 125.23C158.9 740.6 128.22 820.19 118.47 902c134.6-0.01 269.2 0.02 403.8-0.01-16.72-31.53-27.2-66.34-30.71-101.85-4.21-42.57 1.32-86.12 16.49-126.14-81.2-0.41-161.61-26.73-228.47-72.57-26.5 21.43-50.26 46.22-70.82 73.4z" fill="#0C00BF" p-id="12256"></path><path d="M750.59 563.8c38.95-3.49 78.91 3.96 113.73 21.85 41.63 20.98 75.74 56.41 95.24 98.73 17.9 38.29 23.42 82.07 16.3 123.67-6.05 35.84-21.8 69.97-45.03 97.91-22.89 27.77-53.1 49.44-86.75 62.23-37.48 14.35-79.1 17.38-118.34 9.12-38.34-8.1-74.29-27.28-102.28-54.71-18.71-18.07-33.91-39.72-44.71-63.37-14.25-31.22-20.56-66-18.31-100.23 2.04-33.42 12.31-66.32 29.7-94.94 18.84-31.24 46.02-57.37 77.95-75.01 25.33-14.06 53.64-22.7 82.5-25.25m-2 47.02a160.614 160.614 0 0 0-51.92 15.83c-32.25 16.06-58.84 43.17-74.32 75.7-15.48 32.19-19.77 69.55-12.19 104.44 6.2 29.1 20.73 56.3 41.22 77.85 17.42 18.3 39.1 32.56 62.89 41.1 36.49 13.21 77.73 12.76 113.9-1.33 34.49-13.26 64.06-38.71 82.48-70.73 19.99-34.28 26.44-76.01 18.26-114.79-8.87-43.18-36.31-82.02-73.85-105.06-31.43-19.64-69.74-27.84-106.47-23.01z" fill="#0C00BF" p-id="12257"></path><path d="M851.7 696.67c5.39-6.3 14.34-9.09 22.39-7.29 5.95 1.16 11.18 4.97 14.55 9.96 4.66 7.08 4.96 16.74 0.84 24.14-1.64 2.89-3.99 5.28-6.21 7.73-33.94 37.41-67.86 74.84-101.8 112.26-3.68 4.09-7.3 8.63-12.6 10.67-8.17 3.56-18.25 1.84-24.79-4.19-30.08-27.27-60.16-54.55-90.24-81.82-3.71-3.45-6.23-8.13-7.01-13.13-1.77-9.58 3.23-20.03 11.96-24.43 8.13-4.43 18.89-3.39 25.92 2.68 24.54 22.11 48.9 44.44 73.48 66.51 31.18-34.35 62.32-68.75 93.51-103.09z" fill="#FC4E7F" p-id="12258"></path></svg>