<svg width="18.000000" height="18.000000" viewBox="0 0 18 18" fill="none" xmlns="http://www.w3.org/2000/svg" xmlns:xlink="http://www.w3.org/1999/xlink">
	<desc>
			Created with Pixso.
	</desc>
	<g opacity="0.000000">
		<rect x="0.500000" y="0.500000" width="17.000000" height="17.000000" fill="#FFFFFF"/>
		<rect x="0.500000" y="0.500000" width="17.000000" height="17.000000" stroke="#707070"/>
	</g>
	<path d="M0 12.4585C0.000976562 10.9336 1.2373 9.69727 2.76562 9.69336L5.54004 9.69336C7.06836 9.69727 8.30469 10.9336 8.30566 12.4585L8.30566 15.2397C8.30176 16.7627 7.06641 17.9966 5.54004 18L2.76562 18C1.2373 17.9966 0 16.7588 0 15.2334L0 12.4585ZM0 2.76953C0 1.24414 1.2373 0.00634766 2.76562 0.00292969L5.54004 0.00292969C7.06836 0.00634766 8.30566 1.24414 8.30566 2.76953L8.30566 5.55078C8.30566 7.07617 7.06836 8.31396 5.54004 8.31738L2.76562 8.31738C1.2334 8.31396 -0.00488281 7.07129 0 5.54297L0 2.76953ZM9.69629 12.4585C9.69629 10.9336 10.9336 9.69727 12.4609 9.69336L15.2344 9.69336C16.7627 9.69727 17.999 10.9336 18 12.4585L18 15.2397C17.9961 16.7646 16.7578 17.999 15.2295 18L12.458 18C10.9297 17.9966 9.69238 16.7588 9.69238 15.2334L9.69629 12.4585Z" fill-rule="evenodd" fill="#FF5718"/>
	<path d="M12.1348 0.712891C12.5898 0.256348 13.208 0 13.8525 0C14.4971 0 15.1152 0.256348 15.5703 0.712891L17.291 2.4375C18.2354 3.38818 18.2354 4.92236 17.291 5.87305L15.5703 7.59619C15.1152 8.05322 14.4971 8.31006 13.8525 8.31006C13.207 8.31006 12.5889 8.05322 12.1348 7.59619L10.4131 5.87305C9.46875 4.92236 9.46875 3.38818 10.4131 2.4375L12.1348 0.712891Z" fill-rule="evenodd" fill="#FFB69B"/>
	<defs/>
</svg>
