<svg width="17.999023" height="17.999512" viewBox="0 0 17.999 17.9995" fill="none" xmlns="http://www.w3.org/2000/svg" xmlns:xlink="http://www.w3.org/1999/xlink">
	<desc>
			Created with Pixso.
	</desc>
	<path d="M15.999 0L2 0C0.901367 0 0.00976562 0.937988 0 2.09863L17.999 2.09863C17.9893 0.937988 17.0977 0 15.999 0ZM0 3.15771L0 15.8828C0 17.0518 0.895508 17.9995 2 17.9995L15.999 17.9995C17.1035 17.9995 17.999 17.0518 17.999 15.8828L17.999 3.15771L0 3.15771ZM11.7627 11.7632L9.37109 12.1406L9.37109 13.5156C9.17578 13.5156 8.62793 13.7231 8.62793 13.5156L8.62793 12.1406L6.5918 12.1406C6.5918 11.9326 6.39648 11.3452 6.5918 11.3452L8.62793 11.3457L8.62793 10.6133L7.07031 10.6133C7.07031 10.4048 6.87402 9.82568 7.07031 9.82568L8.60742 9.82568L6.90234 8.06689C6.90234 7.96533 6.83398 7.60059 6.90332 7.5293C6.99902 7.5293 7.3457 7.45898 7.41406 7.52979L9.00391 9.18994L10.5879 7.53467C10.6836 7.53467 11.0293 7.46338 11.0967 7.53467C11.0967 7.63623 11.166 7.99854 11.0967 8.07031L9.41699 9.82617L10.9287 9.82617C10.9287 10.0342 11.125 10.6133 10.9287 10.6133L9.37109 10.6133L9.37109 11.3457L11.7627 11.7632Z" fill-rule="evenodd" fill="#FFFFFF"/>
	<defs/>
</svg>
