<svg width="19.270508" height="21.737305" viewBox="0 0 19.2705 21.7373" fill="none" xmlns="http://www.w3.org/2000/svg" xmlns:xlink="http://www.w3.org/1999/xlink">
	<desc>
			Created with Pixso.
	</desc>
	<path d="M11.8086 19.5083L9.63477 21.7373L7.46191 19.5078C3.09473 18.4673 0.00292969 14.4775 0 9.87939C0.00390625 4.42334 4.31641 0.00244141 9.63477 0C14.9551 0.00244141 19.2676 4.42432 19.2705 9.88086C19.2676 14.479 16.1758 18.4678 11.8086 19.5083ZM3.87598 13.2559C5.29102 15.4199 7.41406 16.7969 9.79004 16.7969C12.1631 16.7969 14.2871 15.4199 15.7012 13.2544C14.0977 11.7178 11.9844 10.8647 9.79004 10.8682C7.59473 10.8638 5.48047 11.7188 3.87598 13.2559ZM9.63477 8.89209C11.2314 8.89209 12.5254 7.56494 12.5254 5.92773C12.5254 4.29053 11.2314 2.96289 9.63477 2.96289C8.03906 2.96289 6.74512 4.29053 6.74512 5.92773C6.74512 7.56494 8.03906 8.89209 9.63477 8.89209Z" fill-rule="evenodd" fill="#FFFFFF"/>
	<defs/>
</svg>
