<svg width="19.433594" height="19.854492" viewBox="0 0 19.4336 19.8545" fill="none" xmlns="http://www.w3.org/2000/svg" xmlns:xlink="http://www.w3.org/1999/xlink">
	<desc>
			Created with Pixso.
	</desc>
	<path d="M4.92383 4.97412C4.92383 7.72119 7.14648 9.94824 9.8877 9.94824C12.6289 9.94824 14.8516 7.72119 14.8516 4.97412C14.8516 2.22705 12.6289 0 9.8877 0C7.14648 0 4.92383 2.22705 4.92383 4.97412ZM5.49219 19.8535L9.10254 19.8535L9.60254 15.4917C7.33789 15.6812 5.5459 17.5562 5.49219 19.8535ZM14.0059 15.939C15.0508 16.9771 15.6484 18.3813 15.6719 19.8535L19.4336 19.8535C19.3057 16.8809 18.2744 13.6812 15.8955 11.8906L13.0859 15.1914C13.418 15.4082 13.7256 15.6587 14.0059 15.939ZM10.3242 15.4888L10.3242 19.3872L10.9316 19.8535L14.4688 19.8535C14.4141 17.5444 12.6045 15.6621 10.3242 15.4888ZM5.95508 15.939C7.66504 14.2329 10.2656 13.7891 12.4453 14.8315L15.3008 11.4756C13.7002 10.4419 11.7939 9.94531 9.8877 9.94824C4.54492 9.94824 0.226562 14.123 0 19.4219L4.28906 19.8545C4.3125 18.3823 4.91016 16.9775 5.95508 15.939Z" fill-rule="evenodd" fill="#FFFFFF"/>
	<defs/>
</svg>
