<svg id="费用信息" xmlns="http://www.w3.org/2000/svg" xmlns:xlink="http://www.w3.org/1999/xlink" width="16" height="16" viewBox="0 0 16 16">
  <defs>
    <linearGradient id="linear-gradient" x1="0.5" x2="0.5" y2="1" gradientUnits="objectBoundingBox">
      <stop offset="0" stop-color="#a187ff"/>
      <stop offset="1" stop-color="#9b57ff"/>
    </linearGradient>
  </defs>
  <g id="矩形_4391" data-name="矩形 4391" stroke="#707070" stroke-width="1" opacity="0" fill="url(#linear-gradient)">
    <rect width="16" height="16" stroke="none"/>
    <rect x="0.5" y="0.5" width="15" height="15" fill="none"/>
  </g>
  <path id="路径_7970" data-name="路径 7970" d="M152.224,107.627a8.251,8.251,0,0,0-4.395-5.5,2.211,2.211,0,0,0,.855-1.979.476.476,0,0,0-.032-.145c-.562-1.475-2.8-1.514-3.242-1.512-.009,0-.019-.006-.028-.006-.272,0-2.706-.021-3.295,1.52a.542.542,0,0,0-.032.143,2.213,2.213,0,0,0,.855,1.979,8.292,8.292,0,0,0-4.4,5.531,5.41,5.41,0,0,0,.965,4.574c.828,1.036,2.479,2.254,5.66,2.254.077,0,.156,0,.234,0s.157,0,.234,0c3.18,0,4.833-1.219,5.661-2.254A5.4,5.4,0,0,0,152.224,107.627Zm-5.157,1.473H145.8v1.547a.429.429,0,1,1-.858,0V109.1h-1.267a.442.442,0,0,1,0-.883h1.267v-.551H143.81a.443.443,0,0,1,0-.883h.733l-.714-.791a.451.451,0,0,1,.028-.617.42.42,0,0,1,.6.015l.913,1.01.913-1.01a.42.42,0,0,1,.6-.015.451.451,0,0,1,.028.617l-.714.791h.735a.442.442,0,0,1,0,.883H145.8v.551h1.267a.442.442,0,0,1,0,.883Z" transform="translate(-137.369 -98.488)" fill="url(#linear-gradient)"/>
</svg>
