<svg width="20.000977" height="16.000000" viewBox="0 0 20.001 16" fill="none" xmlns="http://www.w3.org/2000/svg" xmlns:xlink="http://www.w3.org/1999/xlink">
	<desc>
			Created with Pixso.
	</desc>
	<path d="M15.9775 2.85596L19.7471 6.67383C19.9102 6.83887 20.001 7.06006 20.001 7.29004L20.001 13.1782L18.6699 13.1782C18.668 14.7368 17.3896 16 15.8125 16C14.2363 16 12.958 14.7368 12.9561 13.1782L7.05176 13.1782C7.04883 14.7368 5.77148 16 4.19434 16C2.61816 16 0.894531 14.7368 0.892578 13.1782C0.398438 13.1772 -0.000976562 12.7817 0 12.2954L0 1.54541C-0.00195312 0.693848 0.697266 0.00195312 1.5625 0L10.4463 0C11.3115 0.00244141 12.0098 0.694336 12.0078 1.54541L12.0078 2.58984L15.3389 2.58984C15.5791 2.58984 15.8096 2.68604 15.9775 2.85596ZM14.5742 4.17236C14.8145 4.17236 15.0459 4.26904 15.2139 4.44141L18.2158 7.52051L18.2158 9.10303L12.8584 9.10303L12.8584 4.17236L14.5742 4.17236ZM3.12402 13.1309C3.12305 12.5376 3.60254 12.0557 4.19531 12.0547C4.78906 12.0562 5.26855 12.5415 5.26758 13.1348C5.26758 13.7261 4.78711 14.2061 4.19531 14.2061C3.60449 14.2061 3.12402 13.7222 3.12402 13.1309ZM14.7422 13.1309C14.7412 12.5376 15.2207 12.0562 15.8135 12.0547C16.4072 12.0557 16.8867 12.5415 16.8857 13.1348C16.8857 13.7261 16.4053 14.2061 15.8135 14.2061C15.2227 14.2061 14.7422 13.7222 14.7422 13.1309Z" fill-rule="evenodd" fill="#FFFFFF"/>
	<defs/>
</svg>
