<svg width="19.467773" height="20.000000" viewBox="0 0 19.4678 20" fill="none" xmlns="http://www.w3.org/2000/svg" xmlns:xlink="http://www.w3.org/1999/xlink">
	<desc>
			Created with Pixso.
	</desc>
	<path d="M17.9082 20L1.55957 20C0.698242 20 0 19.3213 0 18.4844L0 6.37695C0.0253906 5.60889 0.6875 4.95508 1.47852 4.95117L17.9102 4.86328C18.7705 4.86328 19.4678 5.54102 19.4678 6.37695L19.4678 10.5376L12.1016 10.5396C10.7881 10.5396 9.70801 11.5796 9.73438 12.856C9.75977 14.0889 10.7949 15.0806 12.0693 15.0806L19.4658 15.0806L19.4678 18.4844C19.4678 19.3213 18.7695 20 17.9082 20ZM10.5127 12.9121C10.4951 12.0601 11.2188 11.3672 12.0957 11.3672L19.4658 11.3672L19.4678 14.3931L12.0693 14.3945C11.2207 14.3945 10.5293 13.7334 10.5127 12.9121ZM12.8486 12.8101C12.8486 12.3921 12.5 12.0532 12.0693 12.0532C11.6396 12.0532 11.291 12.3921 11.291 12.8101C11.291 13.228 11.6396 13.5669 12.0693 13.5669C12.5 13.5669 12.8486 13.228 12.8486 12.8101ZM15.0244 0.0415039C15.5518 -0.0961914 16.0693 0.120117 16.1807 0.523926L16.96 3.34766L2.33496 3.34961L15.0244 0.0415039Z" fill-rule="evenodd" fill="#FFFFFF"/>
	<defs/>
</svg>
