<svg xmlns="http://www.w3.org/2000/svg" xmlns:xlink="http://www.w3.org/1999/xlink" width="16" height="16" viewBox="0 0 16 16">
  <defs>
    <linearGradient id="linear-gradient" x1="0.5" x2="0.5" y2="1" gradientUnits="objectBoundingBox">
      <stop offset="0" stop-color="#ff9778"/>
      <stop offset="1" stop-color="#ff643d"/>
    </linearGradient>
  </defs>
  <g id="开票运单列表" transform="translate(4726 -11424.915)">
    <g id="矩形_4444" data-name="矩形 4444" transform="translate(-4726 11424.915)" fill="#fff" stroke="#707070" stroke-width="1" opacity="0">
      <rect width="16" height="16" stroke="none"/>
      <rect x="0.5" y="0.5" width="15" height="15" fill="none"/>
    </g>
    <path id="路径_7909" data-name="路径 7909" d="M139.052,64H130.21A2.249,2.249,0,0,0,128,66.274V77.642a2.249,2.249,0,0,0,2.21,2.274h8.842a2.249,2.249,0,0,0,2.21-2.274V66.274A2.249,2.249,0,0,0,139.052,64Zm-8.289,3.979a.562.562,0,0,1,.553-.568h4.974a.569.569,0,0,1,0,1.137h-4.974A.562.562,0,0,1,130.763,67.979Zm0,3.979a.562.562,0,0,1,.553-.568h4.974a.569.569,0,0,1,0,1.137h-4.974A.562.562,0,0,1,130.763,71.958Zm7.579,4.385a.543.543,0,0,1-.454.162h-6.573a.569.569,0,0,1,0-1.137h5.3l-.719-.739a.582.582,0,0,1,0-.8.543.543,0,0,1,.782,0l1.667,1.714A.582.582,0,0,1,138.342,76.343Z" transform="translate(-4852.674 11361)" fill="url(#linear-gradient)"/>
  </g>
</svg>
