<svg width="19.999023" height="17.998535" viewBox="0 0 19.999 17.9985" fill="none" xmlns="http://www.w3.org/2000/svg" xmlns:xlink="http://www.w3.org/1999/xlink">
	<desc>
			Created with Pixso.
	</desc>
	<path d="M4 3.91309L15.999 3.91309C18.208 3.91309 19.999 5.7041 19.999 7.91309L19.999 8.99951L14.4561 8.99951C13.375 8.99951 12.499 9.87549 12.499 10.9561C12.499 12.0361 13.375 12.9121 14.4561 12.9121L19.999 12.9121L19.999 13.9985C19.999 16.208 18.208 17.9985 15.999 17.9985L4 17.9985C1.79102 17.9985 0 16.208 0 13.9985L0 7.91309C0 5.7041 1.79102 3.91309 4 3.91309ZM5.83301 9.40771C5.92676 9.40771 6.0127 9.43848 6.08203 9.49023L7.30664 7.96436C7.35742 8.01172 7.4502 8.06885 7.54785 8.12891C7.76465 8.26172 8.00684 8.41064 7.89551 8.51465L6.22559 9.68506C6.24121 9.72852 6.25 9.77539 6.25 9.82422L6.25 10.1865L7.94336 10.1865C8.15918 10.1865 8.33301 10.3608 8.33301 10.5762C8.33301 10.791 8.15918 10.9653 7.94336 10.9653L6.25 10.9653L6.25 11.7441L7.94336 11.7441C8.15918 11.7441 8.33301 11.9185 8.33301 12.1333C8.33301 12.3486 8.15918 12.5229 7.94336 12.5229L6.25 12.5229L6.25 13.6641C6.25 13.894 6.06348 14.0806 5.83301 14.0806C5.60254 14.0806 5.41699 13.894 5.41699 13.6641L5.41699 12.5229L3.72266 12.5229C3.50781 12.5229 3.33301 12.3486 3.33301 12.1333C3.33301 11.9185 3.50781 11.7441 3.72266 11.7441L5.41699 11.7441L5.41699 10.9653L3.72266 10.9653C3.50781 10.9653 3.33301 10.791 3.33301 10.5762C3.33301 10.3608 3.50781 10.1865 3.72266 10.1865L5.41699 10.1865L5.41699 10.0146L3.77051 7.96436L5.83008 9.40771L5.83301 9.40771Z" fill-rule="evenodd" fill="#FFFFFF"/>
	<path d="M8.19336 3.13086L17.2695 3.13086L16.1045 1.10791C15.4941 0.0488281 14.1436 -0.314453 13.0869 0.297363L8.19336 3.13086Z" fill-rule="evenodd" fill="#FFFFFF"/>
	<defs/>
</svg>
